# Blender v2.80 (sub 75) OBJ File: ''
# www.blender.org
o pCube3_Mesh.000
v -0.308000 1.687684 0.308000
v 0.000000 1.687684 0.308000
v 0.000000 1.720618 0.308000
v -0.308000 1.720618 0.308000
v -0.211003 1.986411 0.211003
v 0.000000 1.986411 0.211003
v 0.000000 1.986411 0.000000
v -0.211003 1.986411 0.000000
v -0.308000 1.720618 -0.308000
v 0.000000 1.720618 -0.308000
v 0.000000 1.687684 -0.308000
v -0.308000 1.687684 -0.308000
v -0.192425 0.000000 0.000000
v 0.000000 0.000000 0.000000
v 0.000000 -0.000000 0.192425
v -0.192425 -0.000000 0.192425
v 0.308000 1.687684 0.308000
v 0.308000 1.687684 0.000000
v 0.308000 1.720618 0.000000
v 0.308000 1.720618 0.308000
v -0.308000 1.687684 0.000000
v -0.308000 1.720618 0.000000
v -0.347000 0.089880 -0.347000
v 0.000000 0.089880 -0.347000
v 0.000000 0.000000 -0.347000
v -0.347000 0.000000 -0.347000
v -0.347000 0.000000 0.000000
v -0.347000 -0.000000 0.347000
v -0.347000 0.089880 0.347000
v -0.347000 0.089880 0.000000
v 0.000000 -0.000000 0.347000
v 0.000000 0.089880 0.347000
v 0.347000 -0.000000 0.347000
v 0.347000 0.000000 0.000000
v 0.347000 0.089880 0.000000
v 0.347000 0.089880 0.347000
v -0.190000 0.701104 -0.190000
v 0.000000 0.701104 -0.190000
v 0.000000 0.396254 -0.190000
v -0.190000 0.396254 -0.190000
v -0.190000 0.396254 0.000000
v -0.190000 0.396254 0.190000
v -0.190000 0.701104 0.186063
v -0.190000 0.701104 0.000000
v 0.190000 0.396254 0.190000
v 0.190000 0.396254 0.000000
v 0.190000 0.701104 0.000000
v 0.190000 0.701104 0.186063
v -0.240000 1.642542 -0.240000
v 0.000000 1.642542 -0.240000
v 0.000000 1.590158 -0.190000
v -0.190000 1.590158 -0.190000
v 0.000000 0.339355 -0.240000
v -0.240000 0.339355 -0.240000
v -0.240000 0.339355 0.000000
v -0.240000 0.339355 0.240000
v -0.240000 1.642542 0.240000
v -0.240000 1.642542 0.000000
v -0.190000 1.590158 0.000000
v -0.190000 1.590158 0.190000
v 0.000000 0.339355 0.240000
v 0.000000 0.396254 0.181800
v 0.000000 1.642542 0.240000
v 0.000000 1.590158 0.181800
v 0.240000 0.339355 0.240000
v 0.240000 0.339355 0.000000
v 0.240000 1.642542 0.000000
v 0.240000 1.642542 0.240000
v 0.190000 1.590158 0.190000
v 0.190000 1.590158 0.000000
v -0.347000 1.892300 0.347000
v 0.000000 1.892300 0.347000
v 0.000000 1.986411 0.347000
v -0.347000 1.986411 0.347000
v -0.347000 1.892300 0.000000
v -0.347000 1.986411 0.000000
v -0.347000 1.986411 -0.347000
v 0.000000 1.986411 -0.347000
v 0.000000 1.892300 -0.347000
v -0.347000 1.892300 -0.347000
v 0.347000 1.892300 0.347000
v 0.347000 1.892300 0.000000
v 0.347000 1.986411 0.000000
v 0.347000 1.986411 0.347000
v -0.240000 0.195905 0.240000
v 0.000000 0.195905 0.240000
v 0.000000 0.234189 0.240000
v -0.240000 0.234189 0.240000
v -0.240000 0.195905 0.000000
v -0.240000 0.234189 0.000000
v -0.240000 0.234190 -0.240000
v 0.000000 0.234190 -0.240000
v 0.000000 0.195905 -0.240000
v -0.240000 0.195905 -0.240000
v 0.240000 0.195905 0.240000
v 0.240000 0.195905 0.000000
v 0.240000 0.234189 0.000000
v 0.240000 0.234189 0.240000
v 0.000000 0.000000 -0.192425
v -0.192425 0.000000 -0.192425
v 0.192425 -0.000000 0.192425
v 0.192425 0.000000 0.000000
v -0.240000 1.786276 0.240000
v 0.000000 1.786276 0.240000
v -0.240000 1.786276 0.000000
v -0.211003 1.986411 -0.211003
v 0.000000 1.986411 -0.211003
v 0.000000 1.786276 -0.240000
v -0.240000 1.786276 -0.240000
v 0.240000 1.786276 0.240000
v 0.240000 1.786276 0.000000
v 0.211003 1.986411 0.000000
v 0.211003 1.986411 0.211003
v -0.240000 1.750668 0.240000
v 0.000000 1.750668 0.240000
v -0.240000 1.750668 0.000000
v 0.000000 1.750668 -0.240000
v -0.240000 1.750668 -0.240000
v 0.240000 1.750668 0.240000
v 0.240000 1.750668 0.000000
v -0.308000 0.263381 0.308000
v 0.000000 0.263381 0.308000
v 0.000000 0.301864 0.308000
v -0.308000 0.301864 0.308000
v -0.308000 0.263381 0.000000
v -0.308000 0.301864 0.000000
v -0.308000 0.301864 -0.308000
v 0.000000 0.301864 -0.308000
v 0.000000 0.263381 -0.308000
v -0.308000 0.263381 -0.308000
v 0.308000 0.263381 0.308000
v 0.308000 0.263381 0.000000
v 0.308000 0.301864 0.000000
v 0.308000 0.301864 0.308000
v 0.000000 0.702633 0.186137
v 0.308000 1.720618 -0.308000
v 0.308000 1.687684 -0.308000
v 0.240000 1.642542 -0.240000
v 0.190000 1.590158 -0.190000
v 0.190000 0.701104 -0.190000
v 0.190000 0.396254 -0.190000
v 0.240000 0.339355 -0.240000
v 0.308000 0.301864 -0.308000
v 0.308000 0.263381 -0.308000
v 0.240000 0.234190 -0.240000
v 0.240000 0.195905 -0.240000
v 0.347000 0.089880 -0.347000
v 0.347000 0.000000 -0.347000
v 0.192425 0.000000 -0.192425
v 0.000000 1.284803 0.186137
v 0.190000 1.284283 0.186063
v 0.211003 1.986411 -0.211003
v 0.347000 1.986411 -0.347000
v 0.347000 1.892300 -0.347000
v 0.240000 1.786276 -0.240000
v 0.240000 1.750668 -0.240000
v 0.190000 0.993206 0.186063
v 0.190000 0.993206 0.000000
v 0.190000 1.284283 0.000000
v 0.000000 0.993206 0.186137
v -0.190000 1.284283 0.186063
v -0.190000 0.993206 0.186063
v -0.190000 0.993206 0.000000
v -0.190000 1.284283 0.000000
v -0.190000 0.993206 -0.190000
v -0.190000 1.284283 -0.190000
v 0.000000 1.284283 -0.190000
v 0.000000 0.993206 -0.190000
v 0.190000 0.993206 -0.190000
v 0.190000 1.284283 -0.190000
vt 0.776046 0.875486
vt 0.875716 0.875486
vt 0.875716 0.884071
vt 0.776042 0.884073
vt 0.000000 0.000000
vt 0.000000 0.000000
vt 0.000000 0.000000
vt 0.000000 0.000000
vt 0.473065 0.885325
vt 0.373398 0.885325
vt 0.373399 0.876738
vt 0.473066 0.876741
vt 0.000000 0.000000
vt 0.000000 0.000000
vt 0.000000 0.000000
vt 0.000000 0.000000
vt 0.025493 0.879402
vt 0.125169 0.879402
vt 0.125169 0.887987
vt 0.025493 0.887987
vt 0.627164 0.875736
vt 0.726839 0.875729
vt 0.726840 0.884313
vt 0.627165 0.884321
vt 0.498565 0.037966
vt 0.386279 0.037968
vt 0.386280 0.014539
vt 0.498565 0.014540
vt 0.633845 0.014106
vt 0.746165 0.014105
vt 0.746163 0.037538
vt 0.633847 0.037535
vt 0.765310 0.015195
vt 0.877827 0.014279
vt 0.877975 0.037748
vt 0.765517 0.038654
vt 0.028554 0.023582
vt 0.140846 0.023563
vt 0.140848 0.046994
vt 0.028558 0.047009
vt 0.503522 0.364264
vt 0.387597 0.365923
vt 0.385457 0.195166
vt 0.501174 0.195166
vt 0.616992 0.195166
vt 0.732758 0.195166
vt 0.733504 0.360677
vt 0.619595 0.362504
vt 0.038108 0.195166
vt 0.153882 0.195166
vt 0.155921 0.369128
vt 0.042531 0.370685
vt 0.451064 0.851788
vt 0.373399 0.851785
vt 0.373399 0.830611
vt 0.434886 0.830615
vt 0.386282 0.149644
vt 0.463958 0.149644
vt 0.447773 0.171596
vt 0.386282 0.171594
vt 0.633849 0.149215
vt 0.711517 0.149217
vt 0.695340 0.171163
vt 0.633849 0.171166
vt 0.704830 0.850777
vt 0.627165 0.850783
vt 0.627165 0.829609
vt 0.688650 0.829610
vt 0.801117 0.149995
vt 0.878702 0.149433
vt 0.878860 0.173370
vt 0.817442 0.171787
vt 0.875717 0.850527
vt 0.798049 0.850536
vt 0.814224 0.829366
vt 0.875715 0.827263
vt 0.063184 0.158663
vt 0.140848 0.158674
vt 0.140847 0.180624
vt 0.079357 0.180618
vt 0.125167 0.854444
vt 0.047497 0.854446
vt 0.063673 0.833269
vt 0.125165 0.833269
vt 0.763435 0.961049
vt 0.875729 0.961017
vt 0.875736 0.985547
vt 0.763441 0.985578
vt 0.627164 0.961265
vt 0.739475 0.961267
vt 0.739475 0.985804
vt 0.627162 0.985796
vt 0.485697 0.986793
vt 0.373410 0.986803
vt 0.373406 0.962271
vt 0.485696 0.962264
vt 0.012880 0.964932
vt 0.125170 0.964929
vt 0.125170 0.989461
vt 0.012881 0.989460
vt 0.800574 0.082701
vt 0.878258 0.082096
vt 0.878325 0.092075
vt 0.800663 0.092674
vt 0.633849 0.081840
vt 0.711526 0.081847
vt 0.711521 0.091827
vt 0.633849 0.091820
vt 0.463950 0.092246
vt 0.386280 0.092250
vt 0.386279 0.082271
vt 0.463947 0.082267
vt 0.063192 0.091303
vt 0.140851 0.091301
vt 0.140850 0.101280
vt 0.063192 0.101281
vt 0.000000 0.000000
vt 0.000000 0.000000
vt 0.000000 0.000000
vt 0.000000 0.000000
vt 0.000000 0.000000
vt 0.000000 0.000000
vt 0.000000 0.000000
vt 0.000000 0.000000
vt 0.000000 0.000000
vt 0.000000 0.000000
vt 0.000000 0.000000
vt 0.798043 0.916727
vt 0.875718 0.916714
vt 0.000000 0.000000
vt 0.000000 0.000000
vt 0.627165 0.916960
vt 0.704839 0.916956
vt 0.000000 0.000000
vt 0.000000 0.000000
vt 0.000000 0.000000
vt 0.000000 0.000000
vt 0.000000 0.000000
vt 0.373400 0.917967
vt 0.451064 0.917961
vt 0.047503 0.920628
vt 0.125169 0.920626
vt 0.000000 0.000000
vt 0.000000 0.000000
vt 0.000000 0.000000
vt 0.000000 0.000000
vt 0.798042 0.907440
vt 0.875718 0.907433
vt 0.627165 0.907678
vt 0.704838 0.907673
vt 0.373399 0.908684
vt 0.451063 0.908681
vt 0.047501 0.911345
vt 0.125169 0.911345
vt 0.778866 0.116094
vt 0.878477 0.115353
vt 0.878543 0.125378
vt 0.778944 0.126114
vt 0.633849 0.115105
vt 0.733525 0.115113
vt 0.733525 0.125144
vt 0.633849 0.125136
vt 0.485965 0.125563
vt 0.386280 0.125566
vt 0.386280 0.115535
vt 0.485964 0.115530
vt 0.041188 0.124555
vt 0.140849 0.124564
vt 0.140848 0.134595
vt 0.041186 0.134587
vt 0.849814 0.360338
vt 0.848621 0.195166
vt 0.273724 0.885330
vt 0.273724 0.876745
vt 0.295731 0.851787
vt 0.311911 0.830611
vt 0.271755 0.367527
vt 0.269660 0.195166
vt 0.308608 0.149639
vt 0.324789 0.171592
vt 0.286602 0.125559
vt 0.286602 0.115529
vt 0.308609 0.092250
vt 0.308608 0.082273
vt 0.273978 0.037968
vt 0.273977 0.014538
vt 0.000000 0.000000
vt 0.000000 0.000000
vt 0.990230 0.013743
vt 0.990343 0.037188
vt 0.955916 0.081680
vt 0.955965 0.091655
vt 0.978078 0.114793
vt 0.978136 0.124813
vt 0.956283 0.148982
vt 0.940249 0.170985
vt 0.964572 0.195166
vt 0.965707 0.358409
vt 0.972342 0.810673
vt 0.856486 0.810673
vt 0.853655 0.646764
vt 0.969584 0.644579
vt 0.953382 0.850537
vt 0.937205 0.829367
vt 0.975383 0.875490
vt 0.975383 0.884074
vt 0.953379 0.907430
vt 0.953380 0.916711
vt 0.988005 0.961004
vt 0.988009 0.985531
vt 0.000000 0.000000
vt 0.000000 0.000000
vt 0.261111 0.986823
vt 0.261106 0.962289
vt 0.295725 0.917977
vt 0.295725 0.908690
vt 0.224841 0.879408
vt 0.224840 0.887993
vt 0.202835 0.911346
vt 0.202836 0.920626
vt 0.237469 0.964930
vt 0.237472 0.989464
vt 0.514875 0.961259
vt 0.514874 0.985788
vt 0.549499 0.916959
vt 0.549499 0.907679
vt 0.527492 0.884321
vt 0.527491 0.875736
vt 0.549498 0.850781
vt 0.565679 0.829609
vt 0.556175 0.149210
vt 0.572355 0.171166
vt 0.534170 0.125128
vt 0.534173 0.115096
vt 0.556185 0.091816
vt 0.556187 0.081838
vt 0.521566 0.037552
vt 0.521563 0.014128
vt 0.253173 0.023550
vt 0.253171 0.046987
vt 0.218525 0.091302
vt 0.218520 0.101281
vt 0.240521 0.124563
vt 0.240519 0.134591
vt 0.218514 0.158672
vt 0.202334 0.180621
vt 0.202836 0.854448
vt 0.186657 0.833271
vt 0.044478 0.514046
vt 0.157870 0.512515
vt 0.159713 0.655386
vt 0.046318 0.656853
vt 0.851546 0.503288
vt 0.967467 0.501732
vt 0.737323 0.648480
vt 0.735401 0.504827
vt 0.621591 0.506333
vt 0.623404 0.649662
vt 0.505522 0.507888
vt 0.507335 0.651021
vt 0.391423 0.652447
vt 0.389575 0.509421
vt 0.273687 0.510968
vt 0.275588 0.653907
vt 0.161661 0.810673
vt 0.045956 0.810673
vt 0.740575 0.810673
vt 0.624802 0.810673
vt 0.508975 0.810673
vt 0.393254 0.810673
vt 0.277486 0.810673
vn 0.0000 0.0000 1.0000
vn 0.0000 1.0000 0.0000
vn 0.0000 0.0000 -1.0000
vn 0.0000 -1.0000 -0.0000
vn 1.0000 0.0000 0.0000
vn -1.0000 0.0000 0.0000
vn -0.0070 -0.8003 -0.5995
vn 0.0000 -0.7759 -0.6308
vn 0.0000 -0.6905 -0.7234
vn 0.0000 0.7895 -0.6137
vn -0.0114 0.8262 -0.5632
vn 0.0000 0.6601 -0.7512
vn -0.6137 0.7895 0.0000
vn -0.5632 0.8262 0.0114
vn -0.7512 0.6601 0.0000
vn -0.5995 -0.8003 0.0070
vn -0.6308 -0.7759 -0.0000
vn -0.7234 -0.6905 0.0000
vn -0.0056 0.8291 0.5590
vn 0.0015 0.7967 0.6043
vn 0.0015 0.6859 0.7277
vn 0.0139 0.6858 0.7277
vn 0.0015 -0.7839 0.6209
vn -0.0016 -0.8040 0.5947
vn 0.0133 -0.7153 0.6987
vn 0.0016 -0.7153 0.6988
vn 0.5632 0.8262 0.0114
vn 0.6137 0.7895 0.0000
vn 0.7512 0.6601 0.0000
vn 0.6308 -0.7759 -0.0000
vn 0.5996 -0.8003 0.0070
vn 0.7234 -0.6905 0.0000
vn 0.0000 0.7103 -0.7039
vn -0.7039 0.7103 0.0000
vn 0.0000 0.7103 0.7039
vn 0.7039 0.7103 0.0000
vn 0.0000 -0.7103 0.7039
vn -0.7039 -0.7103 0.0000
vn 0.0000 -0.7103 -0.7039
vn 0.7039 -0.7103 0.0000
vn 0.0033 -0.8115 0.5844
vn 0.0000 -0.7912 0.6115
vn 0.0000 -0.8331 0.5531
vn 0.0000 0.9147 0.4042
vn -0.1740 0.9537 0.2454
vn -0.1743 0.9536 0.2456
vn -0.1740 0.9537 -0.2454
vn 0.0000 0.9147 -0.4042
vn -0.1743 0.9536 -0.2456
vn 0.0000 -0.7839 -0.6209
vn 0.0008 -0.8080 -0.5892
vn 0.0000 -0.8331 -0.5531
vn 0.5892 -0.8080 -0.0008
vn 0.6209 -0.7839 0.0000
vn 0.5531 -0.8331 0.0000
vn 0.4042 0.9147 0.0000
vn 0.2454 0.9537 0.1740
vn 0.2456 0.9536 0.1743
vn -0.6209 -0.7839 0.0000
vn -0.5892 -0.8080 -0.0008
vn -0.5531 -0.8331 0.0000
vn -0.2454 0.9537 0.1740
vn -0.4042 0.9147 0.0000
vn -0.2456 0.9536 0.1743
vn -0.1692 -0.9561 0.2392
vn 0.0000 -0.9189 0.3945
vn -0.1695 -0.9560 0.2395
vn 0.0000 0.8097 0.5869
vn 0.0038 0.8417 0.5400
vn 0.0000 0.8757 0.4828
vn -0.3945 -0.9189 -0.0000
vn -0.2392 -0.9561 0.1692
vn -0.2395 -0.9560 0.1695
vn -0.5448 0.8386 -0.0010
vn -0.5962 0.8028 0.0000
vn -0.4828 0.8757 0.0000
vn 0.0010 0.8386 -0.5448
vn 0.0000 0.8028 -0.5962
vn 0.0000 0.8757 -0.4828
vn 0.0000 -0.9189 -0.3945
vn -0.1692 -0.9561 -0.2392
vn -0.1695 -0.9560 -0.2395
vn 0.2392 -0.9561 0.1692
vn 0.3945 -0.9189 -0.0000
vn 0.2395 -0.9560 0.1695
vn 0.5962 0.8028 0.0000
vn 0.5448 0.8386 -0.0010
vn 0.4828 0.8757 0.0000
vn 0.0000 -0.0003 1.0000
vn 0.0105 -0.0002 0.9999
vn 0.0214 -0.0007 0.9998
vn -0.0000 -0.0006 1.0000
vn -0.0008 -0.8080 -0.5892
vn 0.0070 -0.8003 -0.5995
vn 0.0114 0.8263 -0.5632
vn -0.0010 0.8386 -0.5447
vn 0.1692 -0.9561 -0.2392
vn 0.1695 -0.9560 -0.2395
vn 0.1692 -0.9561 0.2392
vn 0.1695 -0.9560 0.2395
vn -0.0038 0.8417 0.5400
vn -0.0015 0.6859 0.7277
vn -0.0015 0.7967 0.6043
vn 0.0056 0.8291 0.5590
vn -0.0139 0.6858 0.7277
vn -0.0214 -0.0007 0.9998
vn -0.0105 -0.0002 0.9999
vn 0.0000 -0.0007 1.0000
vn -0.0214 0.0007 0.9998
vn -0.0000 0.0006 1.0000
vn -0.0000 0.0002 1.0000
vn -0.0105 0.0002 0.9999
vn 0.0016 -0.8040 0.5947
vn -0.0015 -0.7839 0.6209
vn -0.0016 -0.7153 0.6988
vn -0.0133 -0.7153 0.6987
vn -0.0033 -0.8115 0.5844
vn 0.1740 0.9537 0.2454
vn 0.1743 0.9536 0.2456
vn 0.1740 0.9537 -0.2454
vn 0.1743 0.9536 -0.2456
vn 0.2454 0.9537 -0.1740
vn 0.2456 0.9536 -0.1743
vn -0.2454 0.9537 -0.1740
vn -0.2456 0.9536 -0.1743
vn -0.5892 -0.8080 0.0008
vn -0.5996 -0.8003 -0.0070
vn -0.5632 0.8262 -0.0114
vn -0.5448 0.8386 0.0010
vn -0.2392 -0.9561 -0.1692
vn -0.2395 -0.9560 -0.1695
vn 0.2392 -0.9561 -0.1692
vn 0.2395 -0.9560 -0.1695
vn 0.5448 0.8386 0.0010
vn 0.5632 0.8262 -0.0114
vn 0.5996 -0.8003 -0.0070
vn 0.5892 -0.8080 0.0008
vn -0.0105 0.0004 0.9999
vn 0.0002 0.0002 1.0000
vn 0.0001 -0.0000 1.0000
vn 0.0004 -0.0000 1.0000
vn -0.0002 0.0002 1.0000
vn 0.0105 0.0004 0.9999
vn -0.0004 -0.0000 1.0000
vn -0.0001 -0.0000 1.0000
vn 0.0214 0.0007 0.9998
vn 0.0105 0.0002 0.9999
vn 0.0000 0.0007 1.0000
vn 0.0002 -0.0002 1.0000
vn -0.0105 -0.0004 0.9999
vn 0.0105 -0.0004 0.9999
vn -0.0002 -0.0002 1.0000
s 1
f 1/1/1 2/2/1 3/3/1 4/4/1
s 2
f 5/5/2 6/6/2 7/7/2 8/8/2
s 3
f 9/9/3 10/10/3 11/11/3 12/12/3
s 4
f 13/13/4 14/14/4 15/15/4 16/16/4
s 5
f 17/17/5 18/18/5 19/19/5 20/20/5
s 6
f 21/21/6 1/22/6 4/23/6 22/24/6
s 7
f 23/25/3 24/26/3 25/27/3 26/28/3
s 8
f 27/29/6 28/30/6 29/31/6 30/32/6
s 9
f 28/33/1 31/34/1 32/35/1 29/36/1
s 10
f 33/37/5 34/38/5 35/39/5 36/40/5
s 11
f 37/41/3 38/42/3 39/43/3 40/44/3
s 12
f 41/45/6 42/46/6 43/47/6 44/48/6
s 13
f 45/49/5 46/50/5 47/51/5 48/52/5
s 14
f 49/53/7 50/54/8 51/55/9 52/56/9
s 15
f 53/57/10 54/58/11 40/59/12 39/60/12
s 16
f 55/61/13 56/62/14 42/63/15 41/64/15
s 17
f 57/65/16 58/66/17 59/67/18 60/68/18
s 18
f 56/69/19 61/70/20 62/71/21 42/72/22
s 19
f 63/73/23 57/74/24 60/75/25 64/76/26
s 20
f 65/77/27 66/78/28 46/79/29 45/80/29
s 21
f 67/81/30 68/82/31 69/83/32 70/84/32
s 22
f 71/85/1 72/86/1 73/87/1 74/88/1
s 23
f 75/89/6 71/90/6 74/91/6 76/92/6
s 24
f 77/93/3 78/94/3 79/95/3 80/96/3
s 25
f 81/97/5 82/98/5 83/99/5 84/100/5
s 26
f 85/101/1 86/102/1 87/103/1 88/104/1
s 27
f 89/105/6 85/106/6 88/107/6 90/108/6
s 28
f 91/109/3 92/110/3 93/111/3 94/112/3
s 29
f 95/113/5 96/114/5 97/115/5 98/116/5
s 30
f 94/112/33 93/111/33 24/26/33 23/25/33
s 31
f 99/117/4 100/118/4 26/119/4 25/120/4
s 32
f 13/13/4 16/16/4 28/121/4 27/122/4
s 33
f 85/106/34 89/105/34 30/32/34 29/31/34
s 34
f 16/16/4 15/15/4 31/123/4 28/121/4
s 35
f 86/102/35 85/101/35 29/36/35 32/35/35
s 36
f 101/124/4 102/125/4 34/126/4 33/127/4
s 37
f 96/114/36 95/113/36 36/40/36 35/39/36
s 38
f 103/128/37 104/129/37 72/86/37 71/85/37
s 39
f 6/6/2 5/5/2 74/130/2 73/131/2
s 40
f 105/132/38 103/133/38 71/90/38 75/89/38
s 41
f 5/5/2 8/8/2 76/134/2 74/130/2
s 42
f 106/135/2 107/136/2 78/137/2 77/138/2
s 43
f 108/139/39 109/140/39 80/96/39 79/95/39
s 44
f 110/141/40 111/142/40 82/98/40 81/97/40
s 45
f 112/143/2 113/144/2 84/145/2 83/146/2
s 46
f 114/147/1 115/148/1 104/129/1 103/128/1
s 47
f 116/149/6 114/150/6 103/133/6 105/132/6
s 48
f 109/140/3 108/139/3 117/151/3 118/152/3
s 49
f 119/153/5 120/154/5 111/142/5 110/141/5
s 50
f 121/155/1 122/156/1 123/157/1 124/158/1
s 51
f 125/159/6 121/160/6 124/161/6 126/162/6
s 52
f 127/163/3 128/164/3 129/165/3 130/166/3
s 53
f 131/167/5 132/168/5 133/169/5 134/170/5
s 54
f 57/74/41 63/73/42 2/2/43 1/1/43
s 55
f 115/148/44 114/147/45 4/4/46 3/3/44
s 56
f 118/152/47 117/151/48 10/10/48 9/9/49
s 57
f 50/54/50 49/53/51 12/12/52 11/11/52
s 58
f 68/82/53 67/81/54 18/18/55 17/17/55
s 59
f 120/154/56 119/153/57 20/20/58 19/19/56
s 60
f 58/66/59 57/65/60 1/22/61 21/21/61
s 61
f 114/150/62 116/149/63 22/24/63 4/23/64
s 62
f 88/104/65 87/103/66 122/156/66 121/155/67
s 63
f 61/70/68 56/69/69 124/158/70 123/157/70
s 64
f 90/108/71 88/107/72 121/160/73 125/159/71
s 65
f 56/62/74 55/61/75 126/162/76 124/161/76
s 66
f 54/58/77 53/57/78 128/164/79 127/163/79
s 67
f 92/110/80 91/109/81 130/166/82 129/165/80
s 68
f 98/116/83 97/115/84 132/168/84 131/167/85
s 69
f 66/78/86 65/77/87 134/170/88 133/169/88
s 70
f 135/171/89 43/47/90 42/46/91 62/172/92
s 71
f 10/10/3 136/173/3 137/174/3 11/11/3
s 72
f 138/175/93 50/54/50 11/11/52 137/174/52
s 73
f 51/55/9 50/54/8 138/175/94 139/176/9
s 74
f 39/43/3 38/42/3 140/177/3 141/178/3
s 75
f 142/179/95 53/57/10 39/60/12 141/180/12
s 76
f 128/164/79 53/57/78 142/179/96 143/181/79
s 77
f 129/165/3 128/164/3 143/181/3 144/182/3
s 78
f 145/183/97 92/110/80 129/165/80 144/182/98
s 79
f 93/111/3 92/110/3 145/183/3 146/184/3
s 80
f 24/26/33 93/111/33 146/184/33 147/185/33
s 81
f 25/27/3 24/26/3 147/185/3 148/186/3
s 82
f 149/187/4 99/117/4 25/120/4 148/188/4
s 83
f 15/15/4 14/14/4 102/125/4 101/124/4
s 84
f 31/123/4 15/15/4 101/124/4 33/127/4
s 85
f 32/35/1 31/34/1 33/189/1 36/190/1
s 86
f 95/191/35 86/102/35 32/35/35 36/190/35
s 87
f 87/103/1 86/102/1 95/191/1 98/192/1
s 88
f 122/156/66 87/103/66 98/192/99 131/193/100
s 89
f 123/157/1 122/156/1 131/193/1 134/194/1
s 90
f 65/195/101 61/70/68 123/157/70 134/194/70
s 91
f 62/71/102 61/70/103 65/195/104 45/196/105
s 92
f 45/197/106 48/198/107 135/171/89 62/172/108
s 93
f 69/199/109 64/200/110 150/201/111 151/202/112
s 94
f 68/203/113 63/73/114 64/76/115 69/204/116
s 95
f 2/2/43 63/73/42 68/203/117 17/205/43
s 96
f 3/3/1 2/2/1 17/205/1 20/206/1
s 97
f 119/207/118 115/148/44 3/3/44 20/206/119
s 98
f 104/129/1 115/148/1 119/207/1 110/208/1
s 99
f 72/86/37 104/129/37 110/208/37 81/209/37
s 100
f 73/87/1 72/86/1 81/209/1 84/210/1
s 101
f 113/144/2 6/6/2 73/131/2 84/145/2
s 102
f 7/7/2 6/6/2 113/144/2 112/143/2
s 103
f 78/137/2 107/136/2 152/211/2 153/212/2
s 104
f 79/95/3 78/94/3 153/213/3 154/214/3
s 105
f 155/215/39 108/139/39 79/95/39 154/214/39
s 106
f 117/151/3 108/139/3 155/215/3 156/216/3
s 107
f 10/10/48 117/151/48 156/216/120 136/173/121
s 108
f 18/18/5 137/217/5 136/218/5 19/19/5
s 109
f 156/219/122 120/154/56 19/19/56 136/218/123
s 110
f 111/142/5 120/154/5 156/219/5 155/220/5
s 111
f 82/98/40 111/142/40 155/220/40 154/221/40
s 112
f 83/99/5 82/98/5 154/221/5 153/222/5
s 113
f 152/211/2 112/143/2 83/146/2 153/212/2
s 114
f 107/136/2 7/7/2 112/143/2 152/211/2
s 115
f 8/8/2 7/7/2 107/136/2 106/135/2
s 116
f 76/134/2 8/8/2 106/135/2 77/138/2
s 117
f 80/223/6 75/89/6 76/92/6 77/224/6
s 118
f 109/225/38 105/132/38 75/89/38 80/223/38
s 119
f 118/226/6 116/149/6 105/132/6 109/225/6
s 120
f 22/24/63 116/149/63 118/226/124 9/227/125
s 121
f 12/228/6 21/21/6 22/24/6 9/227/6
s 122
f 49/229/126 58/66/59 21/21/61 12/228/61
s 123
f 59/67/18 58/66/17 49/229/127 52/230/18
s 124
f 40/44/6 41/45/6 44/48/6 37/41/6
s 125
f 54/231/128 55/61/13 41/64/15 40/232/15
s 126
f 126/162/76 55/61/75 54/231/129 127/233/76
s 127
f 130/234/6 125/159/6 126/162/6 127/233/6
s 128
f 91/235/130 90/108/71 125/159/71 130/234/131
s 129
f 94/236/6 89/105/6 90/108/6 91/235/6
s 130
f 30/32/34 89/105/34 94/236/34 23/237/34
s 131
f 26/238/6 27/29/6 30/32/6 23/237/6
s 132
f 100/118/4 13/13/4 27/122/4 26/119/4
s 133
f 100/118/4 99/117/4 14/14/4 13/13/4
s 134
f 102/125/4 14/14/4 99/117/4 149/187/4
s 135
f 34/126/4 102/125/4 149/187/4 148/188/4
s 136
f 35/39/5 34/38/5 148/239/5 147/240/5
s 137
f 146/241/36 96/114/36 35/39/36 147/240/36
s 138
f 97/115/5 96/114/5 146/241/5 145/242/5
s 139
f 132/168/84 97/115/84 145/242/132 144/243/133
s 140
f 133/169/5 132/168/5 144/243/5 143/244/5
s 141
f 142/245/134 66/78/86 133/169/88 143/244/88
s 142
f 46/79/29 66/78/28 142/245/135 141/246/29
s 143
f 140/177/5 47/51/5 46/50/5 141/178/5
s 144
f 138/247/136 67/81/30 70/84/32 139/248/32
s 145
f 18/18/55 67/81/54 138/247/137 137/217/55
s 146
f 157/249/5 158/250/5 159/251/5 151/252/5
s 147
f 151/202/138 150/201/139 160/253/140 157/254/141
s 148
f 150/201/142 161/255/143 162/256/144 160/253/145
s 149
f 163/257/6 162/256/6 161/255/6 164/258/6
s 150
f 165/259/6 163/257/6 164/258/6 166/260/6
s 151
f 166/260/3 167/261/3 168/262/3 165/259/3
s 152
f 169/263/3 168/262/3 167/261/3 170/264/3
s 153
f 170/264/5 159/251/5 158/250/5 169/263/5
s 154
f 151/252/5 159/251/5 70/265/5 69/266/5
s 155
f 60/267/146 161/255/147 150/201/111 64/200/148
s 156
f 164/258/6 161/255/6 60/267/6 59/268/6
s 157
f 166/260/6 164/258/6 59/268/6 52/269/6
s 158
f 52/269/3 51/270/3 167/261/3 166/260/3
s 159
f 170/264/3 167/261/3 51/270/3 139/271/3
s 160
f 70/265/5 159/251/5 170/264/5 139/271/5
s 161
f 48/52/5 47/51/5 158/250/5 157/249/5
s 162
f 157/254/141 160/253/140 135/171/149 48/198/150
s 163
f 160/253/145 162/256/144 43/47/151 135/171/152
s 164
f 44/48/6 43/47/6 162/256/6 163/257/6
s 165
f 37/41/6 44/48/6 163/257/6 165/259/6
s 166
f 165/259/3 168/262/3 38/42/3 37/41/3
s 167
f 140/177/3 38/42/3 168/262/3 169/263/3
s 168
f 169/263/5 158/250/5 47/51/5 140/177/5
