# Blender v2.80 (sub 75) OBJ File: ''
# www.blender.org
o pCube6_Mesh.002
v -0.992903 0.000000 -0.045298
v 0.992903 0.000000 -0.042005
v -0.992903 1.985806 -0.020008
v 0.992903 1.985806 -0.022590
v -0.992903 1.985806 -0.198580
v 0.992903 1.985806 -0.198580
v -0.992903 0.000000 -0.198581
v 0.992903 0.000000 -0.198581
v 0.590703 1.985806 0.000000
v -0.000000 1.985806 -0.198580
v -0.000000 0.000000 -0.198581
v 0.590703 0.000000 0.000000
v -0.000000 1.985806 0.000000
v -0.000000 0.000000 0.000000
v -0.595024 1.985806 0.000000
v -0.595024 0.000000 0.000000
v -0.992903 1.587826 0.000000
v -0.992903 1.114635 -0.198580
v 0.992903 1.114635 -0.198580
v 0.992903 1.587826 0.000000
v 0.590703 1.587826 0.040119
v -0.000000 1.587826 0.040119
v -0.595024 1.587826 0.040119
v -0.992903 1.114635 0.000000
v 0.992903 1.114635 0.000000
v 0.590703 1.114635 0.040119
v -0.000000 1.114635 0.040119
v -0.595024 1.114635 0.040119
v -0.992903 0.348570 0.000000
v 0.992903 0.348570 0.000000
v 0.590703 0.348570 0.040118
v -0.000000 0.348570 0.040118
v -0.595024 0.348570 0.040118
v 0.992903 1.891458 0.000000
v -0.992903 1.891458 0.000000
v -0.595024 1.891458 0.040119
v -0.000000 1.891458 0.040119
v 0.590703 1.891458 0.040119
v 0.992903 0.078061 0.000000
v -0.992903 0.078061 0.000000
v -0.595024 0.078061 0.040118
v -0.000000 0.078061 0.040118
v 0.590703 0.078061 0.040118
v -0.884667 1.587826 0.040119
v -0.884667 1.891458 0.040119
v -0.884667 1.985806 0.000000
v -0.884667 0.000000 0.000000
v -0.884667 0.078061 0.040118
v -0.884667 0.348570 0.028328
v -0.884667 1.114635 0.040119
v 0.914793 0.348570 0.040118
v 0.914793 1.114635 0.028328
v 0.914793 1.587826 0.028328
v 0.914793 1.891458 0.040119
v 0.914793 1.985806 0.000000
v 0.914793 0.000000 0.000000
v 0.914793 0.078061 0.040118
v 0.590703 0.788376 0.040119
v 0.914793 0.788376 0.040119
v 0.992903 0.788376 0.000000
v -0.992903 0.788376 0.000000
v -0.884667 0.788376 0.028328
v -0.595024 0.788376 0.040119
v -0.000000 0.788376 0.040119
v 0.590703 1.587826 0.016537
v -0.000000 1.587826 0.016537
v 0.590703 1.114635 0.016537
v -0.000000 1.114635 0.016537
v -0.595024 1.587826 0.016537
v -0.595024 1.114635 0.016537
v -0.000000 0.788376 0.016537
v 0.590703 0.788376 0.016537
v 0.590703 0.348570 0.016537
v -0.000000 0.348570 0.016537
v -0.595024 0.788376 0.016537
v -0.595024 0.348570 0.016537
v -0.000000 1.114635 -0.198580
vt 0.054641 0.000000
vt 0.200860 0.000000
vt 0.200645 0.039439
vt 0.054643 0.039455
vt 0.000000 0.000000
vt 0.000000 0.000000
vt 0.000000 0.000000
vt 0.000000 0.000000
vt 0.000000 0.000000
vt 0.000000 0.000000
vt 0.000000 0.000000
vt 0.000000 0.000000
vt 0.000000 0.000000
vt 0.000000 0.000000
vt 0.000000 0.000000
vt 0.000000 0.000000
vt 0.000000 0.000000
vt 0.000000 0.000000
vt 0.000000 0.000000
vt 0.000000 0.000000
vt 0.000000 0.000000
vt 0.960565 0.039456
vt 0.960569 0.000000
vt 1.000004 0.000011
vt 1.000000 0.039466
vt 0.000000 0.000000
vt 0.000000 0.000000
vt 0.000000 0.000000
vt 0.000000 0.000000
vt 0.499999 0.039442
vt 0.500000 0.000000
vt 0.796965 0.000000
vt 0.797189 0.039439
vt 0.000000 0.000000
vt 0.000000 0.000000
vt 0.000000 0.000000
vt 0.000000 0.000000
vt 0.000000 0.000000
vt 0.000000 0.000000
vt 0.960572 0.952325
vt 0.960601 0.799249
vt 1.000000 0.799004
vt 1.000000 0.952300
vt 0.499999 0.952341
vt 0.499999 0.799282
vt 0.797265 0.799290
vt 0.797194 0.952345
vt 0.200645 0.952347
vt 0.200571 0.799294
vt 0.054597 0.799257
vt 0.054634 0.952329
vt 0.000000 0.000000
vt 0.000000 0.000000
vt 0.960623 0.561229
vt 1.000023 0.561266
vt 0.499999 0.799282
vt 0.500000 0.561227
vt 0.797316 0.561226
vt 0.797265 0.799290
vt 0.200571 0.799294
vt 0.200516 0.561226
vt 0.054569 0.561228
vt 0.200516 0.561226
vt 0.000000 0.000000
vt 0.000000 0.000000
vt 0.000000 0.000000
vt 0.000000 0.000000
vt 0.960604 0.397217
vt 0.960568 0.175902
vt 0.999943 0.176129
vt 0.999989 0.397240
vt 0.499999 0.397179
vt 0.499999 0.175859
vt 0.797244 0.175848
vt 0.797302 0.397170
vt 0.200525 0.397169
vt 0.200582 0.175854
vt 0.054630 0.175912
vt 0.054586 0.397209
vt 0.000000 0.000000
vt 0.200860 1.000000
vt 0.054641 1.000000
vt 0.500000 1.000000
vt 0.796965 1.000000
vt 0.960569 1.000000
vt 0.999999 0.999986
vt 0.200582 0.175854
vt 0.499999 0.175859
vt 0.797244 0.175848
vt 0.000000 0.799004
vt 0.000000 0.952300
vt 0.000003 0.999985
vt 0.000000 0.039466
vt 0.000057 0.176129
vt 0.000011 0.397240
vt -0.000023 0.561266
vt 0.797302 0.397170
vt 0.797316 0.561226
vt 0.200525 0.397169
vt 0.499999 0.397179
vt 0.500000 0.561227
vt 0.499999 0.397179
vt 0.499999 0.397179
vt 0.797302 0.397170
vt 0.797244 0.175848
vt 0.499999 0.175859
vt 0.499999 0.175859
vt 0.200525 0.397169
vt 0.200525 0.397169
vt 0.499999 0.397179
vt 0.499999 0.397179
vt 0.499999 0.175859
vt 0.499999 0.175859
vt 0.200582 0.175854
vt 0.200582 0.175854
vt 0.054630 0.175912
vt 0.054630 0.175912
vt 0.054586 0.397209
vt 0.054586 0.397209
vt 0.054586 0.397209
vt 0.054586 0.397209
vt 0.200582 0.175854
vt 0.200582 0.175854
vt 0.054630 0.175912
vt 0.054630 0.175912
vt 0.960601 0.799249
vt 0.960623 0.561229
vt 0.960623 0.561229
vt 0.960623 0.561229
vt 0.960623 0.561229
vt 0.797316 0.561226
vt 0.000000 0.000000
vn -0.1021 -0.4615 0.8812
vn 0.0000 -0.4571 0.8894
vn -0.0051 -0.1089 0.9940
vn -0.0991 -0.0967 0.9904
vn 0.0000 1.0000 0.0000
vn 0.0000 -1.0000 -0.0000
vn 1.0000 0.0000 0.0000
vn -1.0000 -0.0000 0.0000
vn 0.0967 -0.1120 0.9890
vn 0.1001 -0.4566 0.8840
vn 0.4218 -0.4221 0.8024
vn 0.4559 -0.1148 0.8826
vn -0.0000 -0.1144 0.9934
vn 0.0917 0.0800 0.9926
vn 0.0641 -0.0076 0.9979
vn 0.3651 -0.0071 0.9309
vn 0.3935 0.0626 0.9172
vn 0.0000 0.1003 0.9950
vn 0.0000 -0.0000 1.0000
vn 0.0065 -0.0069 1.0000
vn 0.0049 0.0951 0.9955
vn -0.1003 -0.0000 0.9950
vn -0.0930 0.0919 0.9914
vn 0.0652 0.0089 0.9978
vn 0.3661 0.0069 0.9305
vn -0.0129 -0.0000 0.9999
vn -0.1001 -0.0073 0.9949
vn -0.0045 -0.0040 1.0000
vn 0.0990 0.0076 0.9951
vn 0.0993 -0.0000 0.9951
vn 0.4569 -0.0000 0.8895
vn 0.4338 0.0069 0.9010
vn 0.0133 -0.0000 0.9999
vn -0.0642 0.0083 0.9979
vn -0.0668 -0.0077 0.9977
vn 0.0000 0.3913 0.9203
vn -0.0724 0.3666 0.9275
vn 0.0760 0.3752 0.9238
vn 0.3560 0.2947 0.8868
vn -0.0067 0.0071 1.0000
vn -0.3475 -0.0000 0.9377
vn -0.3277 0.0736 0.9419
vn -0.2558 0.2935 0.9211
vn -0.3271 -0.4536 0.8290
vn -0.3159 -0.1097 0.9424
vn -0.2718 0.0080 0.9623
vn -0.2740 -0.0074 0.9617
vn -0.3290 -0.0070 0.9443
vn 0.0044 0.0043 1.0000
vn 0.0064 0.0064 1.0000
vn -0.0067 -0.0059 1.0000
vn 0.0000 0.0000 -1.0000
s 1
f 47/1/1 16/2/2 41/3/3 48/4/4
f 46/5/5 15/6/5 10/7/5 5/8/5
f 7/9/6 11/10/6 16/11/6 47/12/6
f 2/13/7 8/14/7 39/15/7
f 7/9/8 1/16/8 40/17/8
f 55/18/5 4/19/5 6/20/5
f 56/21/6 8/14/6 2/13/6
f 57/22/9 56/23/10 2/24/11 39/25/12
f 13/26/5 9/27/5 10/7/5
f 14/28/6 11/10/6 12/29/6
f 42/30/13 14/31/2 12/32/2 43/33/13
f 15/6/5 13/26/5 10/7/5
f 16/11/6 11/10/6 14/28/6
f 41/3/3 16/2/2 14/31/2 42/30/13
f 18/34/8 17/35/8 35/36/8 5/8/8
f 20/37/7 19/38/7 6/20/7 34/39/7
f 54/40/14 53/41/15 20/42/16 34/43/17
f 37/44/18 22/45/19 21/46/20 38/47/21
f 36/48/18 23/49/19 22/45/19 37/44/18
f 44/50/22 23/49/19 36/48/18 45/51/23
f 18/34/8 24/52/8 17/35/8
f 25/53/7 19/38/7 20/37/7
f 53/41/15 52/54/24 25/55/25 20/42/16
f 66/56/19 68/57/19 67/58/26 65/59/26
f 69/60/19 70/61/19 68/57/19 66/56/19
f 50/62/27 28/63/28 23/49/19 44/50/22
f 7/9/8 29/64/8 61/65/8 18/34/8
f 30/66/7 8/14/7 19/38/7 60/67/7
f 59/68/29 51/69/30 30/70/31 60/71/32
f 71/72/19 74/73/19 73/74/19 72/75/19
f 75/76/33 76/77/33 74/73/19 71/72/19
f 49/78/34 76/77/33 75/76/33 62/79/35
f 34/39/7 6/20/7 4/19/7
f 35/36/8 3/80/8 5/8/8
f 36/48/18 15/81/36 46/82/37 45/51/23
f 15/81/36 36/48/18 37/44/18 13/83/36
f 13/83/36 37/44/18 38/47/21 9/84/36
f 55/85/38 54/40/14 34/43/17 4/86/39
f 39/15/7 8/14/7 30/66/7
f 40/17/8 29/64/8 7/9/8
f 41/3/3 33/87/40 49/78/34 48/4/4
f 33/87/40 41/3/3 42/30/13 32/88/19
f 32/88/19 42/30/13 43/33/13 31/89/19
f 57/22/9 39/25/12 30/70/31 51/69/30
f 17/90/41 44/50/22 45/51/23 35/91/42
f 46/82/37 3/92/43 35/91/42 45/51/23
f 3/80/5 46/5/5 5/8/5
f 7/9/6 47/12/6 1/16/6
f 1/16/44 47/1/1 48/4/4 40/93/45
f 49/78/34 29/94/46 40/93/45 48/4/4
f 29/94/46 49/78/34 62/79/35 61/95/47
f 24/96/48 50/62/27 44/50/22 17/90/41
f 58/97/49 31/89/19 51/69/30 59/68/29
f 65/59/26 67/58/26 52/54/24 53/41/15
f 38/47/21 21/46/20 53/41/15 54/40/14
f 9/84/36 38/47/21 54/40/14 55/85/38
f 9/27/5 55/18/5 6/20/5 10/7/5
f 12/29/6 11/10/6 8/14/6 56/21/6
f 43/33/13 12/32/2 56/23/10 57/22/9
f 31/89/19 43/33/13 57/22/9 51/69/30
f 26/98/50 58/97/49 59/68/29 52/54/24
f 52/54/24 59/68/29 60/71/32 25/55/25
f 19/38/7 25/53/7 60/67/7
f 61/65/8 24/52/8 18/34/8
f 62/79/35 50/62/27 24/96/48 61/95/47
f 63/99/51 28/63/28 50/62/27 62/79/35
f 28/63/28 63/99/51 64/100/19 27/101/19
f 27/101/19 64/100/19 58/97/49 26/98/50
f 22/45/6 66/56/6 65/59/6 21/46/6
f 26/98/5 67/58/5 68/57/5 27/101/5
f 23/49/6 69/60/6 66/56/6 22/45/6
f 27/101/5 68/57/5 70/61/5 28/63/5
f 28/63/7 70/61/7 69/60/7 23/49/7
f 21/102/6 65/103/6 53/104/6
f 52/105/5 67/106/5 26/107/5
f 64/108/6 71/109/6 72/110/6 58/111/6
f 58/112/8 72/113/8 73/114/8 31/115/8
f 31/116/5 73/117/5 74/118/5 32/119/5
f 63/120/6 75/121/6 71/109/6 64/108/6
f 32/122/5 74/123/5 76/124/5 33/125/5
f 62/126/6 75/127/6 63/128/6
f 33/129/5 76/130/5 49/131/5
f 10/7/52 6/20/52 19/38/52 77/132/52
f 19/38/52 8/14/52 11/10/52 77/132/52
f 10/7/52 77/132/52 18/34/52 5/8/52
f 11/10/52 7/9/52 18/34/52 77/132/52
