# Blender v2.80 (sub 75) OBJ File: ''
# www.blender.org
o pCube6_Mesh.006
v -0.869347 0.000000 0.000000
v -0.584720 0.000000 0.000000
v -0.584720 0.078751 0.041551
v -0.869347 0.078751 0.041551
v -0.869347 2.003350 0.000000
v -0.584720 2.003350 0.000000
v 0.000000 2.003350 -0.205672
v -0.975709 2.003350 -0.205672
v -0.975709 0.000000 -0.205672
v 0.000000 0.000000 -0.205672
v 0.975709 0.000000 -0.043505
v 0.975709 0.000000 -0.205672
v 0.975709 0.078751 0.000000
v -0.975709 0.000000 -0.046916
v -0.975709 0.078751 0.000000
v 0.898951 2.003350 0.000000
v 0.975709 2.003350 -0.023396
v 0.975709 2.003350 -0.205672
v 0.898951 0.000000 0.000000
v 0.898951 0.078751 0.041551
v 0.000000 2.003350 0.000000
v 0.580474 2.003350 0.000000
v 0.000000 0.000000 0.000000
v 0.580474 0.000000 0.000000
v 0.000000 0.078751 0.041551
v 0.580474 0.078751 0.041551
v -0.975709 1.124483 -0.205672
v -0.975709 1.601854 0.000000
v -0.975709 1.908169 0.000000
v 0.975709 1.601854 0.000000
v 0.975709 1.124483 -0.205672
v 0.975709 1.908169 0.000000
v 0.898951 1.908169 0.041551
v 0.898951 1.601854 0.029340
v 0.000000 1.908169 0.041551
v 0.000000 1.601854 0.041551
v 0.580474 1.601854 0.041551
v 0.580474 1.908169 0.041551
v -0.584720 1.908169 0.041551
v -0.584720 1.601854 0.041551
v -0.869347 1.601854 0.041551
v -0.869347 1.908169 0.041551
v -0.975709 1.124483 0.000000
v 0.975709 1.124483 0.000000
v 0.898951 1.124483 0.029339
v 0.000000 1.601854 0.017128
v 0.000000 1.124483 0.017128
v 0.580474 1.124483 0.017128
v 0.580474 1.601854 0.017128
v -0.584720 1.601854 0.017128
v -0.584720 1.124483 0.017128
v -0.869347 1.124483 0.041551
v -0.584720 1.124483 0.041551
v -0.975709 0.351650 0.000000
v -0.975709 0.795341 0.000000
v 0.975709 0.351650 0.000000
v 0.975709 0.795341 0.000000
v 0.898951 0.795341 0.041551
v 0.898951 0.351650 0.041551
v 0.000000 0.795341 0.017128
v 0.000000 0.351650 0.017128
v 0.580474 0.351650 0.017128
v 0.580474 0.795341 0.017128
v -0.584720 0.795341 0.017128
v -0.584720 0.351650 0.017128
v -0.869347 0.351650 0.029339
v -0.869347 0.795341 0.029339
v -0.975709 2.003350 -0.020722
v -0.584720 0.351650 0.041551
v 0.000000 0.351650 0.041551
v 0.580474 0.351650 0.041551
v 0.580474 0.795341 0.041551
v 0.580474 1.124483 0.041551
v -0.584720 0.795341 0.041551
v 0.000000 0.795341 0.041551
v 0.000000 1.124483 0.041551
v 0.000000 1.124483 -0.205672
vt 0.054641 0.000000
vt 0.200860 0.000000
vt 0.200645 0.039439
vt 0.054643 0.039455
vt 0.000000 0.000000
vt 0.000000 0.000000
vt 0.000000 0.000000
vt 0.000000 0.000000
vt 0.000000 0.000000
vt 0.000000 0.000000
vt 0.000000 0.000000
vt 0.000000 0.000000
vt 0.000000 0.000000
vt 0.000000 0.000000
vt 0.000000 0.000000
vt 0.000000 0.000000
vt 0.000000 0.000000
vt 0.000000 0.000000
vt 0.000000 0.000000
vt 0.000000 0.000000
vt 0.000000 0.000000
vt 0.960565 0.039456
vt 0.960569 0.000000
vt 1.000004 0.000011
vt 1.000000 0.039466
vt 0.000000 0.000000
vt 0.000000 0.000000
vt 0.000000 0.000000
vt 0.000000 0.000000
vt 0.499999 0.039442
vt 0.500000 0.000000
vt 0.796965 0.000000
vt 0.797189 0.039439
vt 0.000000 0.000000
vt 0.000000 0.000000
vt 0.000000 0.000000
vt 0.000000 0.000000
vt 0.000000 0.000000
vt 0.000000 0.000000
vt 0.960572 0.952325
vt 0.960601 0.799249
vt 1.000000 0.799004
vt 1.000000 0.952300
vt 0.499999 0.952341
vt 0.499999 0.799282
vt 0.797265 0.799290
vt 0.797194 0.952345
vt 0.200645 0.952347
vt 0.200571 0.799294
vt 0.054597 0.799257
vt 0.054634 0.952329
vt 0.000000 0.000000
vt 0.000000 0.000000
vt 0.960623 0.561229
vt 1.000023 0.561266
vt 0.499999 0.799282
vt 0.500000 0.561227
vt 0.797316 0.561226
vt 0.797265 0.799290
vt 0.200571 0.799294
vt 0.200516 0.561226
vt 0.054569 0.561228
vt 0.200516 0.561226
vt 0.000000 0.000000
vt 0.000000 0.000000
vt 0.000000 0.000000
vt 0.000000 0.000000
vt 0.960604 0.397217
vt 0.960568 0.175902
vt 0.999943 0.176129
vt 0.999989 0.397240
vt 0.499999 0.397179
vt 0.499999 0.175859
vt 0.797244 0.175848
vt 0.797302 0.397170
vt 0.200525 0.397169
vt 0.200582 0.175854
vt 0.054630 0.175912
vt 0.054586 0.397209
vt 0.000000 0.000000
vt 0.200860 1.000000
vt 0.054641 1.000000
vt 0.500000 1.000000
vt 0.796965 1.000000
vt 0.960569 1.000000
vt 0.999999 0.999986
vt 0.200582 0.175854
vt 0.499999 0.175859
vt 0.797244 0.175848
vt 0.000000 0.799004
vt 0.000000 0.952300
vt 0.000003 0.999985
vt 0.000000 0.039466
vt 0.000057 0.176129
vt 0.000011 0.397240
vt -0.000023 0.561266
vt 0.797302 0.397170
vt 0.797316 0.561226
vt 0.200525 0.397169
vt 0.499999 0.397179
vt 0.500000 0.561227
vt 0.499999 0.397179
vt 0.499999 0.397179
vt 0.797302 0.397170
vt 0.797244 0.175848
vt 0.499999 0.175859
vt 0.499999 0.175859
vt 0.200525 0.397169
vt 0.200525 0.397169
vt 0.499999 0.397179
vt 0.499999 0.397179
vt 0.499999 0.175859
vt 0.499999 0.175859
vt 0.200582 0.175854
vt 0.200582 0.175854
vt 0.054630 0.175912
vt 0.054630 0.175912
vt 0.054586 0.397209
vt 0.054586 0.397209
vt 0.054586 0.397209
vt 0.054586 0.397209
vt 0.200582 0.175854
vt 0.200582 0.175854
vt 0.054630 0.175912
vt 0.054630 0.175912
vt 0.960601 0.799249
vt 0.960623 0.561229
vt 0.960623 0.561229
vt 0.960623 0.561229
vt 0.960623 0.561229
vt 0.797316 0.561226
vt 0.000000 0.000000
vn -0.1110 -0.4705 0.8754
vn 0.0000 -0.4667 0.8844
vn -0.0054 -0.1196 0.9928
vn -0.1066 -0.1066 0.9886
vn 0.0000 1.0000 0.0000
vn 0.0000 -1.0000 -0.0000
vn 1.0000 0.0000 0.0000
vn -1.0000 -0.0000 0.0000
vn 0.1047 -0.1216 0.9870
vn 0.1087 -0.4653 0.8784
vn 0.4382 -0.4271 0.7909
vn 0.4742 -0.1231 0.8718
vn 0.0000 -0.1251 0.9921
vn 0.1006 0.0789 0.9918
vn 0.0727 -0.0082 0.9973
vn 0.3822 -0.0075 0.9241
vn 0.4109 0.0613 0.9096
vn 0.0000 0.1003 0.9950
vn 0.0000 -0.0000 1.0000
vn 0.0070 -0.0069 1.0000
vn 0.0051 0.0951 0.9955
vn -0.1088 0.0000 0.9941
vn -0.1005 0.0915 0.9907
vn 0.0727 -0.0076 0.9973
vn 0.0738 0.0089 0.9972
vn 0.3832 0.0068 0.9236
vn 0.3822 -0.0070 0.9241
vn -0.0139 -0.0000 0.9999
vn -0.1084 -0.0073 0.9941
vn -0.0049 -0.0040 1.0000
vn 0.1090 0.0076 0.9940
vn 0.1096 0.0000 0.9940
vn 0.4761 -0.0000 0.8794
vn 0.4523 0.0069 0.8918
vn 0.0144 -0.0000 0.9999
vn -0.0709 0.0083 0.9974
vn -0.0735 -0.0077 0.9973
vn -0.0000 0.1098 0.9940
vn 0.0000 0.4001 0.9165
vn -0.0792 0.3753 0.9235
vn -0.1005 0.1010 0.9898
vn 0.0051 0.1046 0.9945
vn 0.0844 0.3823 0.9202
vn 0.1000 0.0868 0.9912
vn 0.4106 0.0693 0.9092
vn 0.3717 0.2998 0.8786
vn -0.0054 -0.1083 0.9941
vn -0.0072 0.0077 0.9999
vn -0.0709 0.0089 0.9974
vn -0.1066 -0.0954 0.9897
vn -0.0072 0.0071 0.9999
vn -0.0054 -0.1089 0.9940
vn -0.0000 -0.1144 0.9934
vn 0.1060 -0.1115 0.9881
vn 0.4752 -0.1131 0.8726
vn -0.3639 -0.0000 0.9314
vn -0.3423 0.0733 0.9367
vn -0.0786 0.3735 0.9243
vn -0.2680 0.2995 0.9157
vn -0.3421 0.0808 0.9362
vn -0.1000 0.0988 0.9901
vn -0.3409 -0.4604 0.8197
vn -0.1090 -0.4706 0.8756
vn -0.1055 -0.1067 0.9887
vn -0.3310 -0.1194 0.9361
vn -0.0710 0.0089 0.9974
vn -0.2856 0.0084 0.9583
vn -0.3319 -0.1082 0.9371
vn -0.1065 -0.0954 0.9897
vn -0.2856 0.0079 0.9583
vn -0.2878 -0.0074 0.9577
vn -0.3445 -0.0069 0.9388
vn 0.0047 0.0043 1.0000
vn 0.0051 0.0945 0.9955
vn 0.0070 -0.0074 0.9999
vn 0.0727 -0.0081 0.9973
vn 0.1007 0.0789 0.9918
vn 0.1007 0.0889 0.9909
vn 0.0852 0.3839 0.9194
vn 0.1110 -0.4656 0.8780
vn 0.1060 -0.1221 0.9868
vn 0.0069 0.0069 1.0000
vn 0.0047 0.0048 1.0000
vn 0.1090 0.0081 0.9940
vn 0.0738 0.0094 0.9972
vn 0.4523 0.0073 0.8918
vn 0.3832 0.0072 0.9236
vn -0.0735 -0.0082 0.9973
vn -0.1084 -0.0078 0.9941
vn -0.3445 -0.0074 0.9388
vn -0.2878 -0.0079 0.9577
vn -0.0072 -0.0064 1.0000
vn -0.0049 -0.0045 1.0000
vn -0.0072 -0.0059 1.0000
vn 0.0069 0.0064 1.0000
vn 0.0000 0.0000 -1.0000
s 1
f 1/1/1 2/2/2 3/3/3 4/4/4
s 2
f 5/5/5 6/6/5 7/7/5 8/8/5
s 3
f 9/9/6 10/10/6 2/11/6 1/12/6
s 4
f 11/13/7 12/14/7 13/15/7
s 5
f 9/9/8 14/16/8 15/17/8
s 6
f 16/18/5 17/19/5 18/20/5
s 7
f 19/21/6 12/14/6 11/13/6
s 8
f 20/22/9 19/23/10 11/24/11 13/25/12
s 9
f 21/26/5 22/27/5 7/7/5
s 10
f 23/28/6 10/10/6 24/29/6
s 11
f 25/30/13 23/31/2 24/32/2 26/33/13
s 12
f 6/6/5 21/26/5 7/7/5
s 13
f 2/11/6 10/10/6 23/28/6
s 14
f 3/3/3 2/2/2 23/31/2 25/30/13
s 15
f 27/34/8 28/35/8 29/36/8 8/8/8
s 16
f 30/37/7 31/38/7 18/20/7 32/39/7
s 17
f 33/40/14 34/41/15 30/42/16 32/43/17
s 18
f 35/44/18 36/45/19 37/46/20 38/47/21
s 19
f 39/48/18 40/49/19 36/45/19 35/44/18
s 20
f 41/50/22 40/49/19 39/48/18 42/51/23
s 21
f 27/34/8 43/52/8 28/35/8
s 22
f 44/53/7 31/38/7 30/37/7
s 23
f 34/41/24 45/54/25 44/55/26 30/42/27
s 24
f 46/56/19 47/57/19 48/58/28 49/59/28
s 25
f 50/60/19 51/61/19 47/57/19 46/56/19
s 26
f 52/62/29 53/63/30 40/49/19 41/50/22
s 27
f 9/9/8 54/64/8 55/65/8 27/34/8
s 28
f 56/66/7 12/14/7 31/38/7 57/67/7
s 29
f 58/68/31 59/69/32 56/70/33 57/71/34
s 30
f 60/72/19 61/73/19 62/74/19 63/75/19
s 31
f 64/76/35 65/77/35 61/73/19 60/72/19
s 32
f 66/78/36 65/77/35 64/76/35 67/79/37
s 33
f 32/39/7 18/20/7 17/19/7
s 34
f 29/36/8 68/80/8 8/8/8
s 35
f 39/48/38 6/81/39 5/82/40 42/51/41
s 36
f 6/81/39 39/48/38 35/44/38 21/83/39
s 37
f 21/83/39 35/44/38 38/47/42 22/84/39
s 38
f 16/85/43 33/40/44 32/43/45 17/86/46
s 39
f 13/15/7 12/14/7 56/66/7
s 40
f 15/17/8 54/64/8 9/9/8
s 41
f 3/3/47 69/87/48 66/78/49 4/4/50
s 42
f 69/87/51 3/3/52 25/30/53 70/88/19
s 43
f 70/88/19 25/30/53 26/33/53 71/89/19
s 44
f 20/22/54 13/25/55 56/70/33 59/69/32
s 45
f 28/90/56 41/50/22 42/51/23 29/91/57
s 46
f 5/82/58 68/92/59 29/91/60 42/51/61
s 47
f 68/80/5 5/5/5 8/8/5
s 48
f 9/9/6 1/12/6 14/16/6
s 49
f 14/16/62 1/1/63 4/4/64 15/93/65
s 50
f 66/78/66 54/94/67 15/93/68 4/4/69
s 51
f 54/94/70 66/78/36 67/79/37 55/95/71
s 52
f 43/96/72 52/62/29 41/50/22 28/90/56
s 53
f 72/97/73 71/89/19 59/69/32 58/68/31
s 54
f 49/59/28 48/58/28 45/54/25 34/41/24
s 55
f 38/47/74 37/46/75 34/41/76 33/40/77
s 56
f 22/84/39 38/47/42 33/40/78 16/85/79
s 57
f 22/27/5 16/18/5 18/20/5 7/7/5
s 58
f 24/29/6 10/10/6 12/14/6 19/21/6
s 59
f 26/33/13 24/32/2 19/23/80 20/22/81
s 60
f 71/89/19 26/33/53 20/22/54 59/69/32
s 61
f 73/98/82 72/97/83 58/68/84 45/54/85
s 62
f 45/54/85 58/68/84 57/71/86 44/55/87
s 63
f 31/38/7 44/53/7 57/67/7
s 64
f 55/65/8 43/52/8 27/34/8
s 65
f 67/79/88 52/62/89 43/96/90 55/95/91
s 66
f 74/99/92 53/63/93 52/62/89 67/79/88
s 67
f 53/63/30 74/99/94 75/100/19 76/101/19
s 68
f 76/101/19 75/100/19 72/97/73 73/98/95
s 69
f 36/45/6 46/56/6 49/59/6 37/46/6
s 70
f 73/98/5 48/58/5 47/57/5 76/101/5
s 71
f 40/49/6 50/60/6 46/56/6 36/45/6
s 72
f 76/101/5 47/57/5 51/61/5 53/63/5
s 73
f 53/63/7 51/61/7 50/60/7 40/49/7
s 74
f 37/102/6 49/103/6 34/104/6
s 75
f 45/105/5 48/106/5 73/107/5
s 76
f 75/108/6 60/109/6 63/110/6 72/111/6
s 77
f 72/112/8 63/113/8 62/114/8 71/115/8
s 78
f 71/116/5 62/117/5 61/118/5 70/119/5
s 79
f 74/120/6 64/121/6 60/109/6 75/108/6
s 80
f 70/122/5 61/123/5 65/124/5 69/125/5
s 81
f 67/126/6 64/127/6 74/128/6
s 82
f 69/129/5 65/130/5 66/131/5
s 83
f 7/7/96 18/20/96 31/38/96 77/132/96
s 84
f 31/38/96 12/14/96 10/10/96 77/132/96
s 85
f 7/7/96 77/132/96 27/34/96 8/8/96
s 86
f 10/10/96 9/9/96 27/34/96 77/132/96
